PathFileType	4	(X/Y/Z)	/Users/niels/Desktop/University/Third Semester/Perception and Action/Exam/Gymnastics Motion Tracking/Code for Gym Tracking/Analyzed Data/Webcam_Backflip/id19_3_trajectory_Sports2D/id19_3_trajectory_Sports2D_px_person00.trc
DataRate	CameraRate	NumFrames	NumMarkers	Units	OrigDataRate	OrigDataStartFrame	OrigNumFrames
29.714285714285715	29.714285714285715	10	22	m	29.714285714285715	26	105
Frame#	Time	Hip			RHip			RKnee			RAnkle			RBigToe			RSmallToe			RHeel			LHip			LKnee			LAnkle			LBigToe			LSmallToe			LHeel			Neck			Head			Nose			RShoulder			RElbow			RWrist			LShoulder			LElbow			LWrist		
		X1	Y1	Z1	X2	Y2	Z2	X3	Y3	Z3	X4	Y4	Z4	X5	Y5	Z5	X6	Y6	Z6	X7	Y7	Z7	X8	Y8	Z8	X9	Y9	Z9	X10	Y10	Z10	X11	Y11	Z11	X12	Y12	Z12	X13	Y13	Z13	X14	Y14	Z14	X15	Y15	Z15	X16	Y16	Z16	X17	Y17	Z17	X18	Y18	Z18	X19	Y19	Z19	X20	Y20	Z20	X21	Y21	Z21	X22	Y22	Z22
26	0.875	0.9758407026443804	-0.7575636660961876	0.0	0.9738649875565387	-0.7570399176459148	0.0	0.999778587744931	-0.874000857595373	0.0	0.9604768898943628	-0.9987318652335577	0.0	1.0044532579310341	-1.0151377418519132	0.0	0.9912781864454762	-1.0180687343466908	0.0	0.9496920109285053	-1.0126419038264047	0.0	0.9805584804653903	-0.7562184108043083	0.0	0.9940844580677024	-0.8708932318127376	0.0	0.9665763960160918	-0.9882168994003155	0.0	1.0151832102176945	-1.0053732696615556	0.0	1.0097291315850432	-1.0015911256348162	0.0	0.9529209516147518	-1.002576317876845	0.0	0.9930277421565243	-0.5768698353462894	0.0	1.0244148195068772	-0.4992591414246519	0.0	1.0348496400922522	-0.545799228129043	0.0	0.9739910232471282	-0.6052038185517242	0.0	0.941495857903845	-0.6820482985052557	0.0	0.9222690464832254	-0.7634780438257127	0.0	0.984734756362663	-0.601418854470628	0.0	0.9602989608785251	-0.6820666554274203	0.0	0.941438303347963	-0.7556522048033099	0.0
27	0.9086538461538461	0.9767170609984694	-0.7525180419976589	0.0	0.9738498637750903	-0.7519235842045605	0.0	0.9942523006324439	-0.8680773456872793	0.0	0.9598804893945684	-0.9938854517732248	0.0	1.0037557178475613	-1.0109878444180072	0.0	0.9907839779691664	-1.0140772829143545	0.0	0.949386629218273	-1.0093734042290499	0.0	0.9829663002913339	-0.7510140497399799	0.0	0.9908408640631087	-0.865101539009975	0.0	0.9661208468610035	-0.983521526747155	0.0	1.0134806363769824	-1.000984443373412	0.0	1.0089906025905613	-0.9976298934275876	0.0	0.9525862657501194	-0.9996442265257437	0.0	0.9923194537571883	-0.571489211008174	0.0	1.0242144163394276	-0.4927937900619894	0.0	1.0343268717954013	-0.5402487282396979	0.0	0.9720184036684407	-0.597586211226414	0.0	0.9305055974390881	-0.6677855830813343	0.0	0.9006926962391308	-0.7461155726889532	0.0	0.986296080554286	-0.5948369997207494	0.0	0.9511535707720097	-0.670164915645471	0.0	0.9199323846946142	-0.7402326508961455	0.0
28	0.9423076923076923	0.976793602126309	-0.7432057003276888	0.0	0.9738865065532821	-0.7422104310398415	0.0	0.9893826972263075	-0.857939131376383	0.0	0.9596246584570666	-0.985309763367656	0.0	1.0045626859917816	-1.003713855245248	0.0	0.9921803887746659	-1.006982911620352	0.0	0.948970481389584	-1.0024750397255338	0.0	0.9842436649668118	-0.7411859163471758	0.0	0.9877669691239299	-0.8551024427187753	0.0	0.9654185147934703	-0.9754973949053081	0.0	1.0124529483329612	-0.9939270675751087	0.0	1.0085846751944352	-0.99084199889223	0.0	0.9518478092292134	-0.9933411760803168	0.0	0.9914170183264706	-0.5623219566347659	0.0	1.0246261390519642	-0.4827403854400235	0.0	1.0339665342838724	-0.5313721322990331	0.0	0.9707162226627415	-0.5857482951946542	0.0	0.9224410369361504	-0.6491996710840301	0.0	0.884463040879727	-0.7233951381608511	0.0	0.9872927563684954	-0.5841877714416152	0.0	0.9438679537169357	-0.6540511819310842	0.0	0.9053227103414684	-0.7196516526283963	0.0
29	0.9759615384615384	0.9764345019592284	-0.730488346345362	0.0	0.974074891789982	-0.7287744659489002	0.0	0.9857015312948868	-0.8446996628853828	0.0	0.9597350975689237	-0.9738000261578396	0.0	1.0069045817762803	-0.9936451319680173	0.0	0.9952432784000609	-0.9970786471245262	0.0	0.9487751117607413	-0.9922474375966178	0.0	0.9846780810273148	-0.7276869000007236	0.0	0.9852434293761042	-0.8419526442748116	0.0	0.9645880821744469	-0.9648251284569194	0.0	1.0124449278156453	-0.9845015685537928	0.0	1.0086644906325726	-0.9815048890820013	0.0	0.9510017516289417	-0.9839331289156396	0.0	0.9903325302367771	-0.5501401677751364	0.0	1.025595083311374	-0.4699433592320897	0.0	1.0337625596987825	-0.5199061447759884	0.0	0.9699441244871769	-0.5706205888642023	0.0	0.9165656618931192	-0.6278716726886208	0.0	0.8723047411868473	-0.6975053701283895	0.0	0.9877308865818879	-0.5704494962653717	0.0	0.9383867348201914	-0.63527379148607	0.0	0.8973898470258672	-0.6958051433616391	0.0
30	1.0096153846153846	0.9758876567391277	-0.7154024063667298	0.0	0.9742308971620921	-0.7127190798313813	0.0	0.9834985875544454	-0.8296138644448089	0.0	0.9602996762876526	-0.9603804146840235	0.0	1.0103528932746002	-0.9816086486705471	0.0	0.9992162675148207	-0.9851452887594461	0.0	0.9491230530077883	-0.9795646139833623	0.0	0.9845873243132834	-0.7116732764025201	0.0	0.9835119831165923	-0.8268879912021857	0.0	0.963901173710654	-0.9522373960602738	0.0	1.0133150978894911	-0.9731603072525246	0.0	1.0089982967366464	-0.9700982312352358	0.0	0.9504157869514261	-0.9719803760670662	0.0	0.9891584739720867	-0.5359328490690298	0.0	1.0269394997676784	-0.4554667112173362	0.0	1.033683834771602	-0.5067133771356007	0.0	0.9694960053585016	-0.5533480299471006	0.0	0.9119361544598872	-0.6051330525294583	0.0	0.8625849352607353	-0.6699736308078882	0.0	0.9876779266802727	-0.554793313993197	0.0	0.9344369257886341	-0.6150961593685662	0.0	0.8942525552005979	-0.6700308603945434	0.0
31	1.0432692307692306	0.9752351146956122	-0.6991254391336555	0.0	0.9741346091058185	-0.6953728398079915	0.0	0.9827919866131178	-0.8139376100644589	0.0	0.9614109686219815	-0.9462608300258764	0.0	1.0141647339070718	-0.9690127432139128	0.0	1.0031978539302806	-0.9725562106081836	0.0	0.9501429331646383	-0.9658124475023754	0.0	0.9841286056502595	-0.6944719694738892	0.0	0.9826540092270378	-0.8111923926949324	0.0	0.9636058735331021	-0.938705499008439	0.0	1.014596099435236	-0.9608105499366977	0.0	1.0091898978570502	-0.9576074756245523	0.0	0.9502409725726695	-0.9584690599990471	0.0	0.9879912825883176	-0.5208216019833094	0.0	1.028507993775905	-0.4404865138390159	0.0	1.0337203416827625	-0.4927448194657539	0.0	0.9691656288548675	-0.5352676871785813	0.0	0.9077090688874876	-0.5820757664694581	0.0	0.8539010508705344	-0.6417285263561116	0.0	0.9871225653020558	-0.5384440177563015	0.0	0.9315309549562697	-0.594480298778429	0.0	0.8935211016369715	-0.6432637141251772	0.0
32	1.0769230769230769	0.9744292572465466	-0.6829379151856805	0.0	0.9736710370442401	-0.6782006163064976	0.0	0.9833514390570107	-0.7988558997324606	0.0	0.9630659799462589	-0.9326090490457318	0.0	1.0175709812876264	-0.9573893699893321	0.0	1.00651211719601	-0.9608517185849111	0.0	0.9517993642069411	-0.952447702969331	0.0	0.9832484533340611	-0.6775175887847147	0.0	0.9826112505293579	-0.7960913157193474	0.0	0.963805405546702	-0.9253646386745014	0.0	1.015749564834955	-0.9487342950881013	0.0	1.0089684941030157	-0.9453991147914584	0.0	0.9503696361570891	-0.9446528453626032	0.0	0.9868541959567748	-0.5060049753401786	0.0	1.0302047234764977	-0.4261714724254118	0.0	1.033893640802282	-0.4790123997644097	0.0	0.968826167930782	-0.5177781619834557	0.0	0.9032909249797492	-0.5597053813909975	0.0	0.8453720722331746	-0.6134917060697308	0.0	0.9859581919266176	-0.522544277156177	0.0	0.9291110058194147	-0.574236599973912	0.0	0.8933725979526118	-0.6164160236111431	0.0
33	1.1105769230769231	0.9733655102393175	-0.6681078623209136	0.0	0.972806514678862	-0.662606017837483	0.0	0.9847894541618303	-0.7854307089859773	0.0	0.9651104908590784	-0.920335550801623	0.0	1.020039224509169	-0.9478619029371791	0.0	1.0088405256882442	-0.9511944377840221	0.0	0.953930659837747	-0.9405463166891552	0.0	0.9818183541897993	-0.6621772227017598	0.0	0.9832505944426474	-0.7826819889201045	0.0	0.9644616832698077	-0.9132517770721119	0.0	1.0164237797893823	-0.9381914900673799	0.0	1.0083461595078584	-0.9348008791932879	0.0	0.9506223531475843	-0.9317755732027725	0.0	0.9856847478846134	-0.49262747283996294	0.0	1.0319165791170593	-0.41354444993070666	0.0	1.03419708375575	-0.46649708418371016	0.0	0.9684700868734945	-0.5021173839335904	0.0	0.8983854832284758	-0.5390904022323636	0.0	0.8366746510585076	-0.5862200347741863	0.0	0.9840393921027433	-0.5080377918170048	0.0	0.9265320610237914	-0.5551579338344077	0.0	0.8924544712373013	-0.590765786589066	0.0
34	1.1442307692307692	0.9719352419340703	-0.655694216753481	0.0	0.971518101795132	-0.6497113512393033	0.0	0.9867401678543904	-0.7744855678694483	0.0	0.9672607115272236	-0.9100670530111838	0.0	1.0213913356902078	-0.9408955125506164	0.0	1.0101595906888061	-0.9441008450803409	0.0	0.9562139406717199	-0.930697934418187	0.0	0.9797725381889998	-0.6495250807307164	0.0	0.9844546658201715	-0.7718180967268776	0.0	0.9654345595550284	-0.9031303119641555	0.0	1.0166275991936893	-0.930017936380462	0.0	1.0075781456179491	-0.9266962155672781	0.0	0.9508635048951926	-0.9208438700848551	0.0	0.9844219222359434	-0.4816223040332244	0.0	1.0334782303264753	-0.40337558604995744	0.0	1.034540885359465	-0.4560393021556253	0.0	0.96817392105082	-0.48925470903606766	0.0	0.8930580370546097	-0.5213932076739557	0.0	0.8279801525298848	-0.56138355080001	0.0	0.9813494802906151	-0.4956911936112031	0.0	0.9232175409327144	-0.5382112665525814	0.0	0.8896659079059595	-0.5680583576385745	0.0
35	1.1778846153846154	0.9700802393440123	-0.6464109939995707	0.0	0.9697840948713925	-0.6402384908170762	0.0	0.9890343058593292	-0.7665020378410068	0.0	0.9691705624053106	-0.9021692604789306	0.0	1.0217378887270965	-0.936295424392173	0.0	1.0105856363659997	-0.9394349292654516	0.0	0.9581953069517525	-0.9231248211345698	0.0	0.9771611926919256	-0.6402369182303856	0.0	0.9862015195741693	-0.763969616182321	0.0	0.9665373199143223	-0.8954065839580831	0.0	1.0166162245456474	-0.9243742109448184	0.0	1.0069443496753627	-0.9212652397282104	0.0	0.9510135006884625	-0.9124286879622739	0.0	0.9831276194838795	-0.4736385316737226	0.0	1.0346787606939758	-0.39616241899817645	0.0	1.0347706529312959	-0.4482785258035759	0.0	0.9680280672618786	-0.47990719927866726	0.0	0.8877880595397057	-0.5078141672069896	0.0	0.8198480536722507	-0.5410603496964007	0.0	0.978208366037976	-0.4862272348655438	0.0	0.919059691044292	-0.5247623800581362	0.0	0.8846601255761423	-0.5503388849816498	0.0
